<svg width="888" height="574" viewBox="0 0 888 574" fill="none" xmlns="http://www.w3.org/2000/svg">
<path d="M881 573.5L887.092 563.69L875.551 563.319L881 573.5ZM0.501709 1.05783C10.5451 172.996 70.9746 271.575 156.055 328.291C241.06 384.955 350.502 399.707 458.31 404.404C512.206 406.752 565.805 406.589 615.714 407.872C665.661 409.156 711.955 411.888 751.415 420.014C790.88 428.142 823.395 441.641 845.885 464.371C868.345 487.071 880.923 519.095 880.288 564.532L882.288 564.56C882.929 518.713 870.224 486.127 847.307 462.965C824.419 439.833 791.459 426.219 751.818 418.056C712.172 409.891 665.726 407.157 615.765 405.872C565.764 404.587 512.285 404.754 458.397 402.406C350.634 397.71 241.679 382.964 157.165 326.627C72.7263 270.34 12.5144 172.413 2.4983 0.941203L0.501709 1.05783Z" fill="black"/>
</svg>
