<svg width="887" height="573" viewBox="0 0 887 573" fill="none" xmlns="http://www.w3.org/2000/svg">
<path d="M6.45223 572.986L0.360415 563.177L11.9014 562.806L6.45223 572.986ZM886.95 0.544155C876.907 172.482 816.478 271.062 731.397 327.777C646.392 384.442 536.95 399.193 429.143 403.89C375.246 406.239 321.647 406.075 271.739 407.358C221.791 408.642 175.498 411.375 136.037 419.501C96.5719 427.628 64.0575 441.128 41.5673 463.858C19.1071 486.557 6.52899 518.582 7.16432 564.018L5.16446 564.046C4.52343 518.199 17.2278 485.613 40.1456 462.451C63.0336 439.319 95.9929 425.705 135.634 417.542C175.28 409.378 221.726 406.643 271.687 405.359C321.688 404.073 375.167 404.24 429.056 401.892C536.818 397.197 645.773 382.45 730.287 326.113C814.726 269.826 874.938 171.899 884.954 0.427531L886.95 0.544155Z" fill="black"/>
</svg>
